<svg xmlns="http://www.w3.org/2000/svg" viewBox="0 0 360 300" width="360" height="300"><rect width="360" height="300" fill="#f3efe4"/><path d="M62.0,36.7 L125.0,36.7 L125.2,20.0 L131.8,20.9 L134.4,22.9 L134.8,31.1 L136.0,36.2 L138.8,42.4 L139.0,44.9 L141.6,47.8 L158.8,51.5 L165.1,53.8 L166.5,56.4 L169.4,57.4 L176.9,55.8 L179.5,53.4 L183.2,52.8 L191.2,53.6 L199.2,57.1 L206.3,61.4 L208.9,68.4 L210.9,68.4 L212.5,66.1 L216.3,65.7 L221.4,67.3 L225.9,71.9 L236.3,78.1 L240.3,78.1 L245.4,76.0 L250.8,72.1 L254.7,71.4 L257.0,71.8 L258.3,74.9 L259.9,76.0 L272.9,76.3 L279.9,75.5 L282.8,80.0 L285.7,80.9 L289.5,80.0 L298.0,80.8 L283.9,112.3 L262.7,111.3 L237.8,128.3 L222.7,137.0 L217.8,135.5 L214.7,139.6 L212.7,140.0 L212.7,165.6 L210.4,167.7 L208.6,168.1 L200.4,173.3 L194.2,184.4 L194.3,187.2 L198.5,189.5 L200.7,194.4 L200.6,196.7 L198.6,201.3 L198.4,208.7 L197.4,210.4 L198.3,216.5 L197.2,222.9 L198.1,225.7 L201.9,229.3 L205.2,231.3 L208.1,231.9 L214.3,237.4 L217.1,238.2 L219.9,240.2 L224.3,245.1 L226.4,249.3 L240.4,258.3 L242.4,260.7 L243.6,266.9 L244.6,279.9 L85.6,280.0 L85.6,200.4 L83.3,197.1 L78.2,194.5 L73.5,185.9 L80.7,178.2 L82.5,171.8 L82.3,163.2 L80.6,154.8 L77.1,148.3 L75.4,140.6 L75.2,134.0 L75.9,128.5 L74.5,126.1 L74.3,124.2 L73.2,98.9 L69.3,88.6 L68.7,84.0 L65.1,73.0 L64.5,56.9 L65.0,50.5 L62.0,36.7Z" fill="#2f6f4e" stroke="#1e4a34" stroke-width="1.2" stroke-linejoin="round"/></svg>