<svg xmlns="http://www.w3.org/2000/svg" viewBox="0 0 400 280" width="400" height="280"><rect width="400" height="280" fill="#cfe6f5"/><path d="M325.9,255.8 L323.4,261.4 L319.0,261.9 L321.4,261.0 L318.9,255.0 L317.5,259.9 L314.4,259.8 L313.4,237.4 L318.1,192.6 L316.7,191.2 L346.4,191.6 L351.3,221.7 L354.5,231.6 L352.2,237.6 L353.5,250.5 L323.7,250.5 L323.6,252.6 L325.9,255.8ZM318.2,261.6 L315.7,261.8 L315.4,261.7 L318.2,261.6ZM299.3,177.1 L299.6,178.0 L296.6,181.6 L294.3,189.9 L289.7,195.6 L289.2,198.9 L285.5,203.5 L285.4,205.6 L283.6,206.7 L283.8,208.9 L282.0,211.1 L283.2,217.9 L282.7,220.8 L249.4,220.9 L249.3,212.9 L245.7,212.8 L244.3,211.5 L244.8,185.9 L242.7,169.5 L294.1,169.5 L295.1,172.5 L291.6,177.0 L299.3,177.1ZM76.3,245.7 L53.3,245.8 L9.5,228.3 L10.9,225.1 L12.5,225.0 L13.7,223.4 L13.5,221.3 L11.1,218.6 L10.9,216.2 L13.2,212.1 L13.3,207.7 L17.7,202.1 L14.9,199.1 L12.1,193.0 L12.4,186.4 L10.6,176.7 L11.5,175.1 L13.4,174.6 L17.1,176.4 L18.7,174.2 L18.7,162.1 L76.3,162.1 L76.3,245.7ZM12.1,191.7 L14.9,199.1 L17.7,201.7 L14.4,205.6 L13.3,207.7 L13.2,212.1 L11.1,214.9 L11.1,218.6 L13.8,222.4 L13.2,224.4 L-11.5,227.4 L-11.5,168.1 L12.1,191.7ZM76.3,162.1 L76.3,103.2 L157.3,103.2 L157.4,162.1 L76.3,162.1ZM325.1,260.9 L325.9,255.8 L323.6,252.6 L323.7,250.5 L353.5,250.5 L355.0,254.7 L385.5,256.9 L386.0,259.5 L386.9,259.8 L388.7,253.3 L393.9,254.5 L398.6,273.3 L405.2,287.6 L405.0,293.3 L404.3,292.1 L404.3,287.0 L403.3,289.7 L403.4,286.2 L401.6,283.6 L404.3,293.7 L400.0,294.7 L378.9,294.7 L380.6,287.6 L380.7,281.7 L373.3,273.4 L368.7,266.4 L364.7,263.7 L361.6,264.3 L360.7,266.6 L350.0,270.0 L348.9,268.7 L348.9,267.6 L350.0,268.8 L349.6,267.1 L345.8,263.5 L346.7,261.1 L345.1,261.7 L344.9,262.8 L336.9,259.4 L340.7,259.3 L339.1,258.0 L328.2,260.3 L330.7,258.9 L330.6,256.9 L329.7,257.9 L328.6,257.3 L327.3,260.3 L325.1,260.9ZM354.7,270.5 L352.3,270.7 L356.7,269.2 L354.7,270.5ZM352.9,248.8 L352.2,237.6 L354.5,231.6 L351.3,221.7 L346.4,191.6 L375.4,191.6 L372.6,195.9 L378.5,199.9 L381.4,206.1 L393.1,220.1 L395.4,226.9 L397.8,230.2 L398.2,233.1 L401.2,235.4 L400.6,236.6 L398.5,237.6 L399.0,238.9 L397.5,240.2 L397.8,241.5 L396.8,242.6 L397.7,242.7 L395.4,245.3 L396.4,246.7 L395.6,248.0 L394.7,247.6 L393.8,252.4 L393.9,254.5 L388.7,253.3 L387.8,254.5 L387.5,259.3 L386.4,259.7 L385.5,256.9 L355.0,254.7 L352.9,248.8ZM394.4,254.6 L394.2,252.0 L394.9,251.0 L394.4,254.6ZM278.3,111.5 L276.0,108.7 L229.5,109.0 L228.4,106.9 L228.1,98.9 L226.1,95.1 L225.8,91.1 L219.6,77.7 L221.5,71.8 L220.3,70.1 L219.9,66.4 L281.6,66.3 L283.1,68.8 L282.6,72.2 L283.6,76.8 L288.0,79.4 L289.2,81.9 L294.0,87.0 L294.2,88.7 L290.9,94.9 L283.9,97.7 L283.7,100.1 L285.0,102.9 L284.4,104.6 L279.9,110.0 L279.9,112.1 L278.3,111.5ZM-4.4,-13.6 L-4.4,-0.0 L-0.6,4.7 L-0.6,8.2 L4.1,11.4 L10.5,18.7 L11.6,18.5 L12.7,19.9 L15.3,19.8 L13.6,27.2 L14.6,31.1 L13.2,32.2 L13.1,35.7 L15.8,37.0 L19.3,34.0 L21.5,35.4 L22.7,39.7 L25.6,43.8 L25.4,45.7 L29.1,47.7 L30.7,51.9 L32.4,53.1 L34.0,51.6 L37.9,52.0 L39.6,50.7 L48.0,50.9 L49.5,48.0 L53.2,51.6 L53.2,88.4 L-11.5,88.4 L-11.5,40.1 L-9.4,34.8 L-11.5,32.1 L-11.5,-1.4 L-10.7,-5.6 L-8.2,-10.4 L-4.4,-13.6ZM278.7,114.6 L279.9,110.0 L283.3,106.9 L285.0,102.9 L283.7,100.1 L283.9,97.7 L290.9,94.9 L293.9,90.2 L294.0,87.0 L288.5,80.9 L330.1,81.2 L328.0,92.0 L324.6,92.0 L324.4,127.1 L323.1,130.2 L324.5,136.4 L322.7,140.2 L319.3,143.7 L317.8,154.2 L313.3,156.8 L313.6,160.8 L307.0,159.4 L305.7,162.2 L302.7,160.6 L301.5,152.6 L291.7,143.6 L294.4,134.9 L290.5,133.4 L289.3,134.0 L285.4,126.9 L279.5,120.5 L278.7,114.6ZM317.9,149.2 L319.5,145.3 L319.3,143.7 L322.7,140.2 L324.6,135.4 L323.1,130.2 L324.4,127.1 L324.6,92.0 L356.0,92.0 L355.2,133.6 L355.9,135.3 L351.7,137.2 L349.0,136.6 L348.3,139.6 L344.5,143.2 L341.9,147.6 L339.7,146.8 L337.9,144.7 L335.2,149.2 L332.1,147.7 L328.9,150.3 L323.8,148.0 L323.1,149.8 L320.5,148.6 L319.7,150.4 L318.5,150.5 L317.9,149.2ZM305.6,161.5 L307.0,159.4 L313.6,160.8 L313.3,156.8 L317.8,154.2 L317.5,151.8 L319.7,150.4 L320.3,148.7 L323.1,149.8 L323.8,148.0 L325.3,148.3 L328.9,150.3 L332.1,147.7 L335.2,149.2 L337.9,144.7 L339.7,146.8 L341.9,147.6 L344.5,143.2 L348.3,139.6 L349.0,136.6 L351.7,137.2 L355.9,135.3 L355.2,132.1 L356.3,130.8 L360.2,131.3 L362.5,134.6 L368.7,137.8 L370.5,137.1 L374.3,138.0 L378.1,136.9 L381.4,141.2 L381.1,145.2 L383.7,149.9 L385.0,152.0 L388.6,154.2 L380.4,160.1 L377.9,163.5 L375.0,165.6 L368.3,168.2 L320.9,167.4 L317.9,166.6 L318.3,169.5 L302.3,169.5 L302.9,168.2 L305.2,167.6 L306.0,164.9 L305.6,161.5ZM301.9,169.4 L301.2,168.7 L301.5,168.7 L301.9,169.4ZM249.4,220.9 L282.7,220.8 L283.4,225.1 L282.7,226.6 L285.2,231.7 L280.1,239.1 L277.3,246.5 L276.9,250.5 L299.0,250.5 L298.0,256.3 L301.5,262.4 L300.7,262.8 L293.4,259.7 L291.2,263.2 L293.9,264.8 L299.0,262.7 L299.8,263.6 L298.1,265.2 L300.2,266.7 L301.8,264.4 L302.9,264.6 L303.4,267.9 L299.2,270.9 L301.6,273.8 L305.4,275.1 L307.3,277.0 L305.7,279.8 L304.8,278.8 L303.2,280.3 L302.4,277.2 L298.4,275.1 L297.4,273.3 L294.1,272.1 L295.4,273.7 L294.4,278.0 L293.5,278.5 L291.6,275.7 L289.2,276.0 L287.3,278.1 L284.4,277.2 L281.1,275.8 L282.7,275.3 L281.6,271.7 L280.6,272.4 L278.5,271.8 L276.7,269.0 L274.9,268.9 L274.1,267.7 L271.3,269.7 L271.9,271.3 L269.9,271.8 L265.2,271.2 L259.3,268.5 L251.4,268.9 L253.2,263.6 L253.1,257.0 L255.2,249.9 L252.1,242.2 L251.6,238.9 L249.3,235.8 L249.4,220.9ZM305.0,264.7 L303.6,264.3 L305.4,262.8 L304.9,264.0 L305.0,264.7ZM309.2,268.6 L309.5,266.3 L309.0,264.4 L309.7,266.3 L309.2,268.6ZM308.1,270.3 L308.6,269.2 L309.0,268.9 L308.8,269.5 L308.1,270.3ZM274.9,272.8 L272.9,271.6 L272.8,271.0 L274.3,270.6 L275.6,271.4 L274.9,272.8ZM302.2,0.1 L312.0,-3.9 L314.7,-4.4 L317.2,-3.3 L355.1,16.2 L356.2,20.1 L358.7,22.8 L363.4,21.5 L364.1,26.2 L365.4,28.2 L369.6,27.8 L371.3,29.6 L369.9,32.2 L381.9,39.1 L386.6,65.3 L383.5,72.6 L381.9,79.2 L375.9,84.0 L375.0,86.3 L375.3,89.2 L371.3,92.3 L356.0,92.8 L356.0,92.0 L328.0,92.0 L330.1,81.2 L328.8,68.9 L330.2,57.6 L333.9,46.5 L339.0,40.9 L333.2,37.6 L329.2,37.6 L325.7,41.5 L325.3,43.2 L323.0,42.4 L322.2,40.7 L322.9,38.8 L320.5,38.6 L321.2,34.1 L317.7,32.2 L317.3,30.3 L309.4,29.0 L306.1,27.3 L294.6,24.5 L293.3,22.0 L291.4,21.4 L302.2,0.1ZM212.6,-14.6 L240.6,-14.7 L242.7,-10.9 L249.2,-9.7 L253.2,-7.7 L257.0,-9.1 L261.4,-9.0 L267.1,-6.4 L268.1,-4.1 L270.9,-5.0 L272.8,-4.4 L278.5,-0.8 L285.4,-3.1 L287.4,-1.5 L294.9,-1.7 L297.1,0.1 L301.8,0.1 L296.5,10.5 L288.4,10.2 L279.0,15.9 L273.3,18.7 L271.5,18.3 L269.5,19.8 L269.5,28.3 L264.9,30.8 L262.6,34.5 L265.0,37.8 L263.8,43.2 L264.0,48.3 L272.3,53.1 L274.7,56.1 L280.0,59.1 L281.6,66.3 L221.5,66.3 L221.5,39.8 L218.7,37.9 L217.0,35.0 L219.7,32.4 L220.3,27.5 L217.7,19.9 L216.9,6.1 L213.8,-2.5 L213.8,-10.0 L212.6,-14.6ZM299.4,176.8 L291.6,177.0 L295.1,172.5 L294.1,169.5 L242.7,169.5 L242.7,130.8 L240.9,129.8 L237.6,125.1 L237.4,123.8 L239.5,121.7 L239.1,120.0 L237.0,119.8 L234.1,117.8 L230.7,112.6 L229.5,109.0 L276.0,108.7 L279.3,112.3 L278.6,116.5 L280.1,121.6 L285.4,126.9 L289.3,134.0 L290.5,133.4 L294.4,134.9 L291.7,143.6 L301.5,152.6 L301.9,159.0 L303.4,161.6 L304.2,161.9 L304.4,160.9 L305.7,162.2 L305.2,167.6 L302.9,168.2 L302.1,169.7 L301.2,168.7 L299.4,176.8ZM318.1,192.6 L313.4,237.4 L314.4,259.8 L311.0,260.0 L308.6,259.2 L303.8,260.2 L301.5,262.4 L298.0,256.3 L299.0,250.5 L276.9,250.5 L277.3,246.5 L280.1,239.1 L285.2,231.7 L282.7,226.6 L283.2,217.9 L282.0,211.1 L283.8,208.9 L283.7,206.5 L285.4,205.6 L285.5,203.5 L288.6,200.2 L289.7,195.6 L292.3,193.1 L292.6,191.6 L317.0,191.6 L318.1,192.6ZM312.4,261.9 L310.8,261.7 L310.7,261.4 L312.4,261.9ZM-1.4,-14.6 L134.1,-14.6 L134.4,44.2 L53.2,44.2 L53.2,51.6 L49.5,48.0 L48.0,50.9 L39.6,50.7 L37.9,52.0 L34.0,51.6 L32.7,53.1 L31.7,52.8 L29.1,47.7 L25.4,45.7 L25.6,43.8 L22.7,39.7 L21.5,35.4 L19.3,34.0 L15.8,37.0 L13.1,35.7 L13.2,32.2 L14.6,31.1 L13.6,27.2 L15.3,19.8 L12.7,19.9 L11.6,18.5 L10.5,18.7 L4.1,11.4 L-0.5,8.3 L-0.6,4.7 L-4.4,-0.0 L-4.4,-13.6 L-1.4,-14.6ZM375.6,191.6 L361.4,191.8 L362.2,187.9 L364.4,187.4 L366.6,184.0 L370.8,183.0 L376.8,179.8 L378.0,177.6 L380.2,176.4 L381.2,176.2 L381.8,177.3 L384.8,174.9 L387.6,175.0 L389.3,172.3 L391.3,171.6 L392.2,167.9 L411.5,168.3 L411.5,194.5 L402.2,194.1 L402.1,192.1 L400.5,189.9 L399.2,190.6 L398.8,189.3 L383.7,188.5 L375.6,191.6ZM134.1,-14.6 L212.6,-14.6 L213.8,-10.0 L213.8,-2.5 L216.9,6.1 L217.7,19.9 L219.9,25.5 L220.4,30.3 L134.4,30.3 L134.1,-14.6ZM157.3,117.9 L157.3,103.2 L134.3,103.2 L134.2,73.7 L198.6,73.7 L204.1,76.6 L207.2,75.6 L212.5,75.8 L219.0,79.0 L222.3,82.3 L225.8,91.1 L226.1,95.1 L228.0,98.5 L228.4,106.9 L230.7,112.6 L234.3,117.9 L157.3,117.9ZM76.3,245.7 L76.3,162.1 L146.0,162.1 L145.3,235.8 L103.7,235.8 L104.9,238.5 L106.3,239.2 L85.9,239.1 L85.9,245.7 L76.3,245.7ZM18.7,88.4 L18.7,174.2 L17.8,175.7 L16.5,176.4 L14.5,174.7 L12.3,174.7 L10.6,176.7 L12.4,186.4 L12.1,191.7 L-11.5,168.1 L-11.5,88.4 L18.7,88.4ZM376.3,90.9 L380.3,93.2 L383.2,93.2 L396.6,85.4 L405.3,83.7 L405.3,108.4 L403.7,109.6 L404.4,112.6 L401.2,122.9 L396.7,127.0 L394.7,126.9 L392.2,128.6 L390.5,131.4 L390.8,133.4 L389.4,134.2 L388.2,132.5 L387.4,133.2 L385.9,136.1 L385.9,138.5 L382.5,141.3 L379.5,139.4 L378.1,136.9 L374.3,138.0 L370.5,137.1 L368.7,137.8 L362.5,134.6 L360.2,131.3 L355.7,131.3 L356.0,92.8 L371.3,92.3 L375.3,89.2 L376.3,90.9ZM242.7,162.1 L244.8,185.9 L244.3,211.5 L235.8,206.9 L234.0,208.2 L231.4,207.1 L229.3,208.3 L227.4,208.1 L223.1,210.6 L219.8,207.7 L218.2,208.5 L216.0,207.0 L213.9,210.2 L212.8,207.8 L210.6,208.8 L207.8,206.5 L204.6,208.1 L202.6,204.2 L199.6,204.2 L198.5,205.2 L196.7,204.0 L190.4,203.0 L188.0,199.6 L187.5,200.6 L184.9,200.6 L180.6,197.7 L180.6,169.5 L146.0,169.5 L146.0,162.1 L242.7,162.1ZM398.9,234.2 L393.1,220.1 L381.4,206.1 L378.5,199.9 L372.6,195.9 L375.3,191.6 L383.7,188.5 L398.8,189.3 L399.2,190.6 L400.5,189.9 L402.1,192.1 L402.2,194.1 L411.5,194.5 L411.5,226.3 L407.1,228.4 L404.0,228.3 L405.8,229.6 L404.6,231.6 L403.8,230.0 L403.1,230.8 L402.0,229.2 L403.3,232.6 L401.2,235.4 L398.9,234.2ZM219.9,66.4 L220.3,70.1 L221.5,71.8 L219.5,77.3 L221.2,80.9 L212.5,75.8 L207.2,75.6 L204.1,76.6 L198.6,73.7 L134.2,73.7 L134.4,30.3 L220.4,30.3 L219.7,32.4 L217.0,35.0 L218.7,37.9 L221.5,39.8 L221.5,66.3 L219.9,66.4ZM361.4,191.8 L292.6,191.5 L294.9,188.6 L296.6,181.6 L299.6,178.0 L299.7,173.6 L300.8,172.8 L301.1,169.5 L318.3,169.5 L317.9,166.6 L320.9,167.4 L368.3,168.2 L392.2,167.9 L391.3,171.6 L389.3,172.3 L387.6,175.0 L384.8,174.9 L381.8,177.3 L381.2,176.2 L380.2,176.4 L378.0,177.6 L376.8,179.8 L370.8,183.0 L366.6,184.0 L364.4,187.4 L362.2,187.9 L361.4,191.8ZM244.9,212.2 L249.3,212.9 L249.3,235.8 L251.6,238.9 L252.1,242.2 L255.2,249.9 L253.1,257.0 L253.2,263.6 L250.5,268.0 L251.1,269.9 L248.7,270.1 L241.1,274.3 L243.8,271.9 L240.9,271.9 L241.3,269.0 L239.6,270.0 L238.0,269.7 L239.6,274.6 L235.1,280.5 L224.1,287.5 L226.6,285.4 L222.5,285.1 L221.6,286.0 L219.4,284.3 L220.7,287.5 L221.9,288.0 L219.0,289.7 L217.8,288.5 L217.1,291.9 L216.5,292.4 L216.0,291.4 L213.4,292.6 L213.6,293.9 L214.8,293.4 L214.5,294.7 L181.0,294.7 L177.2,289.9 L176.8,287.3 L171.9,277.3 L164.7,269.1 L162.8,268.1 L157.7,268.3 L154.5,267.2 L150.5,268.9 L149.1,270.5 L147.3,276.8 L145.0,279.4 L143.1,280.0 L129.9,271.6 L127.3,267.4 L123.9,256.7 L109.7,243.9 L104.9,238.5 L103.7,235.8 L145.3,235.8 L145.6,169.5 L180.6,169.5 L180.6,197.7 L184.3,200.2 L187.5,200.6 L188.0,199.6 L190.4,203.0 L196.7,204.0 L198.5,205.2 L199.6,204.2 L202.6,204.2 L204.6,208.1 L207.8,206.5 L210.6,208.8 L213.0,207.9 L213.6,210.2 L216.0,207.0 L218.2,208.5 L219.8,207.7 L223.1,210.6 L227.4,208.1 L229.3,208.3 L231.4,207.1 L234.0,208.2 L235.8,206.9 L244.9,212.2ZM237.3,278.0 L240.3,275.0 L241.0,275.0 L239.9,276.3 L237.3,278.0ZM217.5,292.6 L218.1,291.8 L222.1,289.1 L222.0,289.8 L217.5,292.6ZM215.5,294.5 L216.4,293.0 L216.9,292.8 L217.1,293.4 L215.5,294.5ZM76.3,162.1 L18.7,162.1 L18.7,88.4 L53.2,88.4 L53.2,103.2 L76.3,103.2 L76.3,162.1ZM411.5,168.3 L389.3,167.7 L369.0,167.9 L375.0,165.6 L377.9,163.5 L380.4,160.1 L388.6,154.2 L389.7,157.3 L393.0,159.1 L395.7,157.2 L397.7,158.2 L400.7,157.5 L401.6,155.9 L405.9,155.7 L407.6,154.6 L408.5,151.1 L411.5,146.8 L411.5,168.3ZM288.4,80.8 L288.0,79.4 L283.6,76.8 L283.1,75.4 L283.2,69.6 L281.7,67.2 L280.7,59.9 L274.7,56.1 L272.3,53.1 L264.0,48.3 L263.8,43.2 L265.0,37.8 L262.6,34.5 L264.9,30.8 L269.5,28.3 L269.5,19.8 L271.5,18.3 L273.3,18.7 L288.4,10.2 L296.5,10.5 L291.2,20.9 L293.3,22.0 L294.6,24.5 L306.1,27.3 L309.4,29.0 L317.3,30.3 L317.7,32.2 L321.2,34.1 L320.5,38.6 L322.9,38.8 L322.2,40.7 L323.0,42.4 L325.3,43.2 L325.7,41.5 L329.2,37.6 L333.2,37.6 L339.0,40.9 L333.9,46.5 L330.2,57.6 L328.8,68.9 L330.1,81.2 L288.4,80.8ZM388.6,154.2 L385.0,152.0 L381.4,145.9 L381.2,140.8 L382.5,141.3 L384.6,140.3 L386.2,138.0 L385.9,136.1 L387.4,133.2 L388.2,132.5 L389.4,134.2 L390.8,133.4 L390.5,131.4 L392.2,128.6 L394.7,126.9 L396.7,127.0 L401.2,122.9 L404.4,112.6 L403.7,109.6 L405.3,108.4 L405.3,122.0 L411.5,122.0 L411.5,146.8 L408.5,151.1 L407.6,154.6 L405.9,155.7 L401.6,155.9 L400.4,157.7 L397.1,158.2 L395.7,157.2 L393.2,159.0 L392.1,158.9 L389.7,157.3 L388.6,154.2ZM134.3,103.2 L53.2,103.2 L53.2,44.2 L134.1,44.2 L134.3,103.2ZM-11.5,227.4 L10.8,225.3 L9.5,228.3 L53.3,245.8 L85.9,245.7 L85.9,239.1 L106.3,239.2 L109.7,243.9 L123.2,255.8 L128.7,270.0 L133.2,274.3 L144.1,280.0 L147.3,276.8 L149.1,270.5 L150.5,268.9 L154.5,267.2 L157.7,268.3 L164.0,268.6 L173.0,279.0 L177.2,289.9 L181.0,294.7 L52.0,294.7 L48.3,289.1 L45.9,287.8 L40.4,279.7 L39.7,276.0 L37.9,274.9 L37.5,272.1 L33.7,265.5 L32.7,260.9 L29.4,253.6 L30.2,247.9 L23.5,245.4 L23.4,243.6 L22.0,242.3 L19.8,241.3 L19.2,242.8 L17.5,243.1 L8.4,237.3 L10.1,241.0 L9.0,248.2 L11.9,257.8 L11.9,263.0 L14.9,267.8 L22.0,274.6 L25.0,281.1 L26.3,280.8 L27.0,282.8 L28.3,283.0 L29.6,287.2 L32.2,288.5 L33.6,294.7 L16.9,294.7 L18.6,288.5 L17.5,285.8 L8.4,274.8 L5.7,273.7 L-0.1,268.9 L-1.7,265.9 L-1.8,260.8 L-3.8,259.2 L-4.6,253.4 L-7.3,251.0 L-7.7,247.6 L-11.5,242.2 L-11.5,227.4ZM28.8,279.5 L24.0,273.9 L23.9,271.6 L25.9,272.9 L26.4,275.0 L28.4,275.6 L28.8,279.5ZM5.5,294.2 L3.6,293.2 L5.0,289.3 L5.9,292.2 L5.5,294.2ZM39.0,283.4 L36.1,281.6 L36.8,277.5 L39.0,276.5 L39.9,279.9 L39.0,283.4ZM10.8,240.2 L10.1,239.5 L10.1,238.9 L11.0,239.4 L10.8,240.2ZM411.5,81.6 L396.6,85.4 L383.2,93.2 L380.3,93.2 L376.3,90.9 L375.1,88.8 L375.4,84.7 L381.9,79.2 L383.5,72.6 L386.6,65.3 L381.9,39.1 L369.9,32.2 L371.3,29.6 L369.6,27.8 L365.4,28.2 L364.1,26.2 L363.4,21.5 L358.7,22.8 L356.2,20.1 L355.1,16.2 L314.7,-4.4 L302.2,0.1 L297.1,0.1 L294.9,-1.7 L287.4,-1.5 L285.4,-3.1 L278.5,-0.8 L272.8,-4.4 L270.9,-5.0 L268.1,-4.1 L267.1,-6.4 L261.4,-9.0 L257.0,-9.1 L253.2,-7.7 L249.2,-9.7 L242.7,-10.9 L240.6,-14.7 L400.0,-14.7 L404.4,-13.6 L408.9,-9.3 L411.5,-1.4 L411.5,81.6ZM236.4,-14.7 L233.7,-14.6 L-1.4,-14.6 L236.4,-14.7Z" fill="#ece6d8" stroke="#9aa5ad" stroke-width="0.7" stroke-linejoin="round"/><path d="M157.4,162.1 L157.3,117.9 L234.3,117.9 L237.0,119.8 L239.1,120.0 L239.5,121.7 L237.4,123.8 L237.6,125.1 L240.9,129.8 L242.7,130.8 L242.7,162.1 L157.4,162.1Z" fill="#e53935" stroke="#8e1b1b" stroke-width="1" stroke-linejoin="round"/></svg>