<svg xmlns="http://www.w3.org/2000/svg" viewBox="0 0 400 280" width="400" height="280"><rect width="400" height="280" fill="#cfe6f5"/><path d="M367.1,43.2 L367.1,49.1 L357.9,54.9 L356.8,56.7 L357.5,62.1 L355.1,65.3 L352.3,66.5 L348.8,51.8 L343.5,48.1 L341.8,44.0 L339.0,42.3 L337.3,37.8 L337.4,35.8 L342.8,30.6 L343.9,26.9 L342.8,22.1 L343.6,17.6 L342.6,16.4 L345.5,13.9 L345.3,13.0 L353.6,9.8 L354.7,10.1 L354.6,11.5 L355.0,10.5 L357.4,10.9 L358.1,14.3 L359.0,14.7 L363.7,12.0 L364.3,13.5 L359.4,19.1 L360.3,21.4 L363.4,23.4 L364.2,26.6 L361.0,31.1 L356.8,34.2 L356.3,36.0 L358.2,38.6 L361.2,38.9 L361.3,40.3 L363.0,39.4 L364.8,42.4 L367.1,43.2ZM365.4,30.5 L364.5,30.5 L365.4,30.1 L365.4,30.5ZM362.8,38.7 L361.3,38.5 L361.4,37.3 L363.5,37.9 L362.8,38.7ZM288.2,219.9 L287.1,224.8 L291.4,227.9 L291.8,232.9 L293.4,235.4 L293.6,251.8 L292.9,251.8 L294.7,257.4 L290.3,259.0 L286.9,256.1 L285.4,253.0 L286.2,248.9 L285.2,247.4 L286.6,241.0 L284.2,237.7 L285.1,237.0 L285.4,232.6 L283.2,232.1 L284.0,231.0 L284.3,225.5 L280.8,222.5 L281.5,219.7 L280.9,218.9 L285.1,220.2 L288.2,219.9ZM293.3,-1.0 L291.9,-0.8 L292.2,-1.6 L293.3,-1.0ZM306.4,-7.8 L304.3,-5.8 L302.3,-6.5 L301.6,-7.7 L300.1,-7.2 L299.1,-8.0 L306.4,-7.8ZM291.9,-2.3 L290.8,-3.2 L293.1,-4.4 L293.5,-3.7 L291.9,-2.3ZM279.0,-7.6 L279.9,-3.9 L283.0,-1.5 L277.6,2.0 L275.4,6.4 L276.1,7.5 L271.6,8.1 L269.2,9.5 L265.2,14.6 L263.2,13.9 L260.7,14.8 L249.0,14.8 L246.7,16.5 L243.0,17.1 L241.6,19.4 L239.6,20.3 L236.5,19.0 L233.9,15.4 L235.2,13.2 L233.8,13.9 L230.4,10.3 L226.3,11.1 L226.0,6.7 L229.7,3.1 L228.6,3.1 L226.8,0.9 L229.4,-3.9 L225.8,-8.0 L279.0,-7.6ZM161.4,79.7 L157.5,84.2 L155.6,81.6 L161.4,79.7ZM178.9,77.6 L178.6,76.2 L181.2,74.4 L181.1,76.3 L178.9,77.6ZM174.8,83.9 L173.6,83.5 L175.5,82.6 L177.2,78.7 L178.3,78.4 L177.8,82.3 L174.8,83.9ZM166.7,83.0 L166.9,85.3 L165.6,86.3 L163.8,85.2 L164.7,83.1 L166.7,83.0ZM153.2,84.2 L152.5,83.4 L153.0,82.7 L154.1,83.4 L153.2,84.2ZM147.6,87.1 L146.3,86.2 L148.0,85.5 L148.3,85.8 L147.6,87.1ZM148.5,80.4 L147.5,78.3 L149.0,77.6 L149.4,79.4 L148.5,80.4ZM204.9,240.2 L202.2,245.7 L195.8,252.5 L188.5,248.7 L188.6,245.8 L185.8,245.2 L185.0,242.6 L182.7,240.4 L184.1,240.4 L185.5,238.8 L183.3,239.2 L183.2,237.1 L184.2,236.8 L182.5,235.4 L184.5,235.0 L188.9,228.7 L197.5,227.9 L201.9,233.3 L201.5,235.1 L202.4,235.3 L203.3,238.3 L201.7,241.1 L204.9,240.2ZM188.1,248.5 L187.6,248.0 L185.1,247.2 L187.6,246.7 L188.3,247.1 L188.1,248.5ZM190.7,190.8 L190.4,192.3 L192.0,194.3 L192.4,196.9 L191.7,198.9 L193.4,201.4 L194.9,201.0 L196.7,204.4 L196.7,208.7 L190.0,209.3 L184.2,208.0 L184.1,206.8 L168.3,206.5 L165.5,208.0 L158.5,209.1 L156.5,208.1 L159.1,207.0 L157.9,206.2 L156.6,206.9 L156.7,203.4 L157.5,202.7 L163.6,202.7 L163.7,201.3 L167.7,200.8 L168.7,199.5 L175.4,202.0 L178.4,201.2 L178.3,200.1 L174.2,199.9 L169.0,197.4 L166.6,198.1 L166.0,199.2 L158.2,199.2 L156.7,196.7 L157.8,195.6 L156.5,195.9 L153.7,190.8 L150.9,189.9 L153.8,188.6 L156.1,185.6 L160.6,175.8 L164.1,176.1 L170.1,174.6 L175.0,175.4 L178.2,178.8 L180.9,178.9 L183.2,183.1 L190.7,190.8ZM153.1,46.0 L155.4,45.7 L157.2,46.4 L154.8,47.1 L153.1,46.0ZM226.0,-7.7 L229.4,-3.9 L226.8,0.9 L228.6,3.1 L229.7,3.1 L226.0,6.7 L226.3,11.1 L223.1,12.5 L217.5,11.6 L214.5,12.3 L215.8,9.1 L215.4,1.0 L216.9,1.2 L216.0,0.4 L212.9,1.0 L212.6,-0.7 L214.3,-1.4 L216.0,-4.0 L213.5,-1.4 L210.9,-1.3 L211.7,-6.1 L213.5,-8.0 L226.0,-7.7ZM95.1,13.0 L94.2,13.0 L93.9,12.6 L94.7,12.3 L95.1,13.0ZM49.4,-6.3 L48.6,-6.6 L49.2,-7.6 L49.7,-7.2 L49.4,-6.3ZM79.8,-0.5 L78.2,-0.7 L77.6,-1.5 L79.5,-1.7 L79.8,-0.5ZM74.7,0.1 L71.6,-0.7 L70.7,-1.4 L74.7,0.1ZM68.3,0.4 L66.8,-0.2 L68.5,0.2 L68.3,0.4ZM72.6,1.3 L69.7,1.3 L68.9,0.4 L70.0,0.2 L72.6,1.3ZM89.1,5.4 L93.4,5.8 L94.0,5.9 L92.1,6.8 L89.1,5.4ZM335.1,272.6 L335.3,271.5 L336.0,271.8 L335.8,272.4 L335.1,272.6ZM382.7,198.3 L386.1,203.3 L387.1,208.8 L389.5,209.5 L390.3,210.7 L390.0,215.6 L385.5,218.2 L383.4,220.9 L380.2,227.6 L379.7,231.3 L377.7,232.4 L376.2,237.8 L373.8,239.0 L370.9,247.1 L369.1,249.6 L369.8,250.8 L367.7,252.6 L366.3,255.5 L364.1,256.1 L363.4,253.8 L360.4,251.3 L359.0,252.7 L357.0,251.8 L348.9,259.7 L345.1,269.7 L342.7,268.4 L343.2,271.2 L338.4,271.5 L337.5,270.5 L335.7,271.3 L334.1,270.0 L334.7,271.6 L333.0,272.6 L331.8,269.9 L332.5,272.7 L330.8,273.0 L330.4,271.9 L330.2,273.0 L328.1,273.2 L328.1,272.2 L327.4,273.5 L323.1,270.5 L321.4,265.6 L322.8,263.9 L321.5,264.5 L320.2,263.5 L322.1,262.8 L321.1,262.1 L319.5,262.6 L317.6,259.5 L314.4,257.0 L307.1,256.3 L309.1,255.0 L306.3,256.6 L301.6,256.8 L302.1,235.4 L304.1,235.1 L306.2,229.6 L308.3,227.8 L308.3,225.0 L309.6,224.4 L309.1,219.2 L307.4,216.7 L308.7,213.8 L308.6,207.7 L311.5,204.4 L312.3,200.3 L314.4,198.8 L322.3,197.0 L328.4,198.7 L333.1,203.9 L339.7,201.2 L346.6,204.7 L353.0,205.4 L356.2,202.3 L359.4,201.3 L366.4,201.1 L373.2,203.3 L381.4,198.3 L382.7,198.3ZM382.7,198.3 L375.7,201.3 L374.2,203.2 L371.7,203.2 L366.4,201.1 L359.4,201.3 L356.2,202.3 L353.0,205.4 L346.6,204.7 L339.7,201.2 L333.1,203.9 L328.4,198.7 L322.3,197.0 L316.2,198.1 L312.3,200.3 L311.5,204.4 L308.6,207.7 L308.2,214.3 L302.3,208.8 L299.1,210.1 L299.2,212.7 L296.9,209.4 L298.0,208.2 L297.1,206.3 L293.1,206.8 L288.8,203.6 L288.8,201.0 L290.4,201.1 L286.1,198.3 L282.7,192.0 L283.2,188.3 L288.5,188.1 L291.1,185.8 L303.8,185.3 L304.2,184.6 L307.5,185.1 L310.3,181.9 L312.6,175.4 L312.9,154.9 L324.9,152.3 L337.2,141.1 L370.5,120.0 L381.8,122.7 L387.3,127.2 L393.0,124.2 L394.5,136.0 L397.6,140.5 L397.5,142.3 L400.3,145.3 L398.6,148.9 L396.6,172.8 L388.4,182.0 L384.2,188.2 L381.6,192.9 L382.7,198.3ZM265.2,28.2 L268.1,30.5 L269.0,41.9 L270.7,46.2 L273.5,48.7 L272.2,49.7 L272.3,51.6 L260.1,51.8 L259.0,53.7 L253.4,54.9 L252.9,58.8 L254.5,59.9 L254.2,60.7 L244.5,64.6 L240.9,68.7 L233.2,69.8 L232.1,71.8 L228.3,71.4 L219.9,76.5 L216.9,78.8 L216.0,91.3 L211.4,91.6 L208.4,93.5 L201.4,92.1 L196.7,93.2 L197.1,95.2 L194.2,99.4 L191.7,100.3 L188.9,109.6 L184.8,112.5 L182.4,116.4 L178.1,118.7 L175.6,129.7 L172.6,133.3 L171.7,136.1 L154.9,136.8 L155.4,132.9 L159.7,127.4 L160.8,123.4 L163.9,117.9 L162.5,118.8 L163.1,117.4 L170.5,110.5 L171.3,105.0 L174.2,98.2 L180.4,94.4 L185.1,85.0 L195.5,81.8 L205.5,73.3 L209.5,67.5 L209.6,64.8 L207.9,62.6 L208.4,57.0 L211.9,51.7 L212.6,47.8 L218.1,42.4 L230.1,36.7 L234.2,30.3 L237.4,22.2 L242.2,21.3 L242.4,23.6 L247.0,26.8 L256.2,26.8 L259.3,25.2 L260.3,27.5 L265.2,28.2ZM215.8,87.0 L216.8,87.0 L216.8,100.3 L192.0,100.3 L192.0,120.4 L187.5,122.0 L183.5,125.6 L184.6,137.5 L155.2,137.5 L154.2,141.3 L154.9,136.8 L171.7,136.1 L172.6,133.3 L175.6,129.7 L178.1,118.7 L182.4,116.4 L184.8,112.5 L188.9,109.6 L191.7,100.3 L194.2,99.4 L197.1,95.2 L196.7,93.2 L201.4,92.1 L208.4,93.5 L211.4,91.6 L216.0,91.3 L215.8,87.0ZM389.7,21.4 L388.3,21.5 L388.3,20.7 L389.7,21.4ZM387.9,20.0 L387.1,20.2 L387.0,20.0 L387.9,20.0ZM195.9,210.6 L196.7,204.4 L195.3,201.6 L193.9,200.8 L193.4,201.4 L191.7,198.9 L192.0,194.3 L190.4,192.3 L190.0,189.5 L191.4,190.0 L192.6,188.9 L193.9,184.6 L195.8,182.9 L200.0,186.8 L201.8,184.6 L211.1,184.3 L211.9,182.6 L212.0,183.8 L213.1,184.0 L240.4,184.0 L241.6,177.7 L239.6,175.5 L232.4,108.3 L245.6,108.3 L290.0,139.3 L290.1,141.6 L293.4,143.7 L294.5,145.5 L304.8,149.3 L305.7,152.8 L304.6,154.9 L305.7,156.0 L312.9,154.9 L312.6,175.4 L310.3,181.9 L307.5,185.1 L304.2,184.6 L303.8,185.3 L291.1,185.8 L288.5,188.1 L283.1,188.7 L276.5,187.4 L266.8,192.3 L265.7,194.6 L262.2,194.1 L260.1,196.3 L259.5,198.7 L257.3,198.7 L256.9,201.7 L255.2,202.5 L252.1,200.7 L249.2,203.0 L250.0,205.6 L248.1,206.5 L248.5,209.2 L246.5,211.3 L242.1,213.3 L242.4,216.9 L240.6,219.5 L240.3,224.4 L238.0,224.7 L236.5,226.3 L235.0,225.8 L234.9,222.1 L233.6,222.5 L233.6,223.4 L231.9,222.6 L231.6,225.1 L229.7,225.1 L229.2,226.7 L226.6,225.8 L225.6,224.3 L222.0,226.5 L221.9,225.3 L219.9,224.0 L219.4,219.9 L216.9,219.8 L218.9,216.9 L215.8,214.5 L215.8,212.5 L213.6,208.3 L211.5,208.2 L211.8,209.9 L209.1,211.6 L205.0,210.2 L201.7,212.7 L200.1,210.3 L197.6,211.9 L195.9,210.6ZM350.8,67.4 L355.1,65.3 L357.8,61.5 L356.8,56.7 L357.9,54.9 L367.1,49.1 L367.1,43.0 L372.9,45.6 L376.4,46.0 L380.3,45.1 L394.4,49.3 L398.4,57.0 L401.5,58.3 L407.4,58.9 L407.4,124.3 L400.4,120.6 L387.3,127.2 L381.8,122.7 L370.5,120.0 L367.1,113.7 L357.8,111.5 L355.9,105.6 L351.6,99.1 L352.1,97.6 L355.0,95.2 L354.0,89.6 L355.3,86.0 L354.6,75.4 L350.8,67.4ZM196.2,252.2 L202.2,245.7 L204.9,239.9 L209.5,240.0 L210.6,241.0 L211.7,246.2 L211.0,248.4 L213.6,250.0 L215.3,249.7 L216.6,246.5 L217.6,246.4 L219.7,251.2 L219.4,253.3 L217.4,255.7 L222.7,257.9 L223.4,259.9 L226.0,261.0 L225.3,272.9 L213.5,267.3 L205.0,259.1 L197.4,254.2 L196.2,252.2ZM406.9,-3.1 L404.7,-1.1 L404.6,1.3 L401.0,5.0 L398.5,5.1 L397.9,3.2 L399.2,2.1 L399.7,-0.3 L402.0,-1.5 L399.7,-8.0 L404.7,-6.2 L406.9,-3.1ZM371.0,14.0 L370.3,14.3 L370.4,13.8 L371.0,14.0ZM397.8,2.4 L393.9,8.9 L395.3,12.1 L394.0,15.0 L389.4,14.1 L387.6,12.2 L375.5,7.8 L374.0,6.0 L376.2,3.1 L377.5,4.3 L380.4,3.0 L384.1,4.7 L397.8,2.4ZM353.2,-8.0 L352.1,-4.5 L348.9,-5.3 L348.2,-3.1 L347.0,-2.7 L345.4,-3.1 L344.1,-5.0 L344.0,-7.2 L344.3,-8.0 L353.2,-8.0ZM344.1,-3.2 L343.7,-3.7 L343.7,-4.3 L344.6,-3.9 L344.1,-3.2ZM157.5,209.0 L165.5,208.0 L168.3,206.5 L179.3,206.5 L179.4,209.4 L177.6,210.5 L179.2,211.8 L179.2,214.0 L172.2,215.8 L169.5,220.3 L169.4,218.7 L168.1,219.6 L168.2,218.6 L166.9,218.1 L167.2,216.7 L166.2,216.6 L169.3,215.1 L168.1,214.4 L166.7,215.0 L166.1,214.1 L166.3,213.1 L168.2,212.9 L169.2,212.1 L162.8,213.6 L163.0,212.4 L161.3,212.6 L159.9,211.5 L160.5,210.0 L159.1,210.3 L157.5,209.0ZM161.8,219.2 L160.6,219.0 L161.9,218.3 L161.8,219.2ZM163.1,218.7 L162.6,219.4 L162.8,218.3 L163.1,218.7ZM164.4,218.5 L164.2,217.7 L164.8,217.5 L164.8,217.8 L164.4,218.5ZM166.2,215.3 L165.2,215.6 L166.2,214.8 L166.2,215.3ZM163.1,216.2 L162.2,216.1 L162.6,215.1 L163.1,216.2ZM162.5,212.8 L161.6,213.7 L161.2,212.9 L162.5,212.8ZM204.3,239.8 L202.9,241.3 L201.7,241.1 L203.3,238.3 L202.4,235.3 L201.5,235.1 L201.9,233.3 L198.0,228.0 L188.9,228.7 L184.5,235.0 L182.5,235.4 L181.4,232.5 L179.5,231.5 L179.6,228.4 L178.6,228.7 L176.9,226.7 L174.1,225.9 L172.7,223.5 L172.8,221.7 L172.2,222.3 L171.5,220.4 L169.4,221.2 L172.2,215.8 L179.2,214.0 L179.2,211.8 L177.6,210.5 L179.4,209.4 L179.3,206.5 L184.1,206.8 L184.2,208.0 L189.2,209.2 L196.7,208.7 L195.8,210.3 L197.3,211.8 L200.1,210.3 L201.7,212.7 L205.0,210.2 L208.9,211.7 L211.8,209.9 L211.5,208.2 L214.1,208.7 L215.8,214.5 L218.9,216.9 L216.9,219.8 L219.4,219.9 L219.9,224.0 L222.0,225.6 L220.8,228.1 L220.9,231.9 L222.7,232.5 L222.5,234.3 L223.6,235.2 L222.4,236.0 L222.3,237.5 L224.0,238.7 L224.3,240.5 L220.3,239.9 L220.0,241.8 L221.8,243.2 L220.4,247.1 L218.3,247.3 L217.0,246.3 L215.3,249.7 L213.6,250.0 L211.0,248.4 L211.7,246.2 L210.6,241.0 L208.6,239.5 L206.5,240.4 L204.3,239.8ZM281.4,219.4 L280.8,222.5 L284.3,225.5 L284.0,231.0 L283.2,232.1 L284.8,232.0 L285.4,233.0 L284.3,238.0 L286.6,241.0 L285.2,247.4 L286.2,248.9 L285.4,253.0 L286.9,256.1 L290.3,259.0 L288.5,261.2 L283.4,261.7 L266.6,269.6 L258.3,267.0 L260.5,266.5 L261.0,264.3 L260.7,262.9 L259.1,262.0 L257.4,253.3 L259.2,250.1 L260.7,244.3 L262.8,242.1 L261.0,235.5 L260.9,225.9 L259.8,223.1 L260.4,219.9 L276.8,220.4 L279.2,218.5 L281.4,219.4ZM158.2,199.2 L166.0,199.2 L166.6,198.1 L169.6,197.5 L174.2,199.9 L177.4,199.6 L178.5,200.7 L175.4,202.0 L168.7,199.5 L167.7,200.8 L163.7,201.3 L163.6,202.7 L157.5,202.7 L156.7,203.4 L156.2,201.2 L157.4,200.1 L159.3,201.8 L166.6,200.2 L159.1,201.1 L158.2,199.2ZM346.7,277.6 L348.1,278.0 L346.7,281.2 L344.5,281.5 L344.5,280.1 L346.7,277.6ZM258.3,267.0 L257.3,266.8 L258.5,266.7 L258.3,267.0ZM220.8,228.1 L225.6,224.3 L226.6,225.8 L229.2,226.7 L229.7,225.1 L231.6,225.1 L231.9,222.6 L233.6,223.4 L233.6,222.5 L234.9,222.1 L235.0,225.8 L235.9,226.2 L240.1,224.3 L243.5,225.9 L244.5,228.4 L247.0,230.1 L249.2,230.7 L253.2,228.5 L257.5,228.7 L260.5,232.4 L261.4,232.0 L261.0,235.5 L262.8,242.1 L260.7,244.3 L257.3,254.6 L259.1,262.0 L260.7,262.9 L260.5,266.5 L257.9,266.1 L257.6,264.9 L256.5,266.7 L250.8,265.2 L247.2,265.8 L251.4,265.9 L245.0,266.6 L242.1,266.0 L241.5,266.5 L243.8,266.7 L237.4,267.6 L225.3,272.9 L226.0,261.0 L223.4,259.9 L222.7,257.9 L217.4,255.7 L219.7,251.9 L218.3,247.3 L220.2,247.3 L221.8,243.2 L220.0,241.8 L220.1,240.2 L224.3,240.5 L224.0,238.7 L222.3,237.5 L222.4,236.0 L223.6,235.2 L222.5,234.3 L222.7,232.5 L220.9,231.9 L220.8,228.1ZM407.2,246.7 L406.4,247.4 L404.6,244.9 L400.2,247.7 L396.7,247.6 L397.2,245.5 L394.0,239.3 L385.7,231.1 L387.5,228.0 L398.0,227.8 L394.1,222.7 L393.3,219.0 L393.7,213.1 L392.0,207.9 L389.1,203.7 L386.1,203.3 L382.7,198.3 L381.6,192.9 L388.4,182.0 L396.6,172.8 L398.6,148.9 L400.3,145.3 L397.5,142.3 L397.6,140.5 L394.5,136.0 L393.0,124.2 L400.4,120.6 L407.4,124.3 L407.2,246.7ZM407.4,279.3 L404.8,280.0 L402.9,287.3 L401.4,287.8 L401.0,284.4 L394.1,277.1 L393.6,273.4 L391.1,270.9 L389.9,265.5 L390.3,260.8 L388.9,259.4 L391.2,257.5 L396.7,247.6 L400.2,247.7 L404.6,244.9 L406.4,247.4 L407.4,246.6 L407.4,279.3ZM93.4,172.6 L92.9,171.3 L95.1,170.6 L95.2,171.6 L93.4,172.6ZM106.5,188.6 L104.4,187.4 L104.7,185.3 L106.9,187.9 L106.5,188.6ZM96.2,173.5 L94.7,173.4 L95.8,172.6 L96.2,173.5ZM111.5,178.2 L112.6,179.1 L111.6,180.1 L110.6,179.6 L111.5,178.2ZM99.9,189.4 L99.0,188.5 L99.9,187.7 L100.6,188.5 L99.9,189.4ZM102.2,175.0 L100.4,176.1 L99.9,174.7 L102.2,175.0ZM111.1,174.7 L110.3,173.5 L111.0,173.3 L111.1,174.7ZM108.7,186.9 L108.4,185.9 L109.2,185.4 L109.4,186.6 L108.7,186.9ZM345.0,271.1 L348.4,260.4 L354.3,253.7 L357.0,251.8 L357.4,252.6 L359.5,252.6 L360.4,251.3 L363.4,253.8 L364.1,256.1 L365.1,256.1 L369.8,250.8 L369.1,249.6 L370.9,247.1 L372.5,241.5 L373.8,239.0 L376.6,237.3 L377.7,232.4 L379.7,231.3 L380.2,227.6 L383.4,220.9 L385.5,218.2 L389.8,215.9 L390.3,210.7 L389.5,209.5 L387.1,208.8 L386.1,203.3 L389.1,203.7 L392.0,207.9 L393.7,213.1 L393.3,219.0 L394.1,222.7 L398.0,227.8 L387.5,228.0 L385.5,230.3 L388.1,234.2 L394.0,239.3 L397.3,245.9 L391.4,257.2 L388.9,259.4 L390.3,260.8 L389.9,265.5 L391.1,270.9 L393.6,273.4 L394.1,277.1 L401.0,284.4 L401.4,287.8 L354.5,288.0 L355.5,283.0 L353.5,279.4 L354.2,278.7 L353.2,278.8 L352.6,277.3 L354.0,276.9 L353.6,275.2 L352.1,275.2 L351.6,276.3 L348.5,275.0 L347.8,271.3 L345.9,270.3 L345.9,271.6 L345.0,271.1ZM286.2,220.0 L279.2,218.5 L276.8,220.4 L260.4,219.9 L259.8,223.1 L260.7,224.6 L260.9,232.4 L257.5,228.7 L253.2,228.5 L249.2,230.7 L247.0,230.1 L244.5,228.4 L243.5,225.9 L240.3,224.4 L240.6,219.5 L242.4,216.9 L242.1,213.3 L246.5,211.3 L248.5,209.2 L248.1,206.5 L250.0,205.6 L249.2,203.0 L250.6,201.5 L252.1,200.7 L255.2,202.5 L256.9,201.7 L257.3,198.7 L259.5,198.7 L260.1,196.3 L262.2,194.1 L265.7,194.6 L266.8,192.3 L276.5,187.4 L283.1,188.7 L282.7,192.0 L284.3,194.0 L284.7,196.2 L286.1,198.3 L290.4,201.1 L288.8,201.0 L288.8,203.6 L293.1,206.8 L296.9,206.2 L297.9,207.6 L298.0,208.5 L296.8,209.0 L299.2,212.7 L298.1,214.8 L296.2,216.5 L292.1,216.3 L289.4,219.4 L286.2,220.0ZM293.4,257.7 L294.7,257.4 L292.9,251.8 L293.6,251.8 L293.4,235.4 L291.8,232.9 L291.4,227.9 L287.3,225.0 L287.3,222.2 L288.2,219.9 L292.1,216.3 L296.2,216.5 L299.1,213.2 L299.1,210.1 L302.3,208.8 L308.2,214.3 L307.4,216.7 L309.1,219.2 L310.0,223.0 L308.1,225.5 L307.9,228.6 L306.4,229.3 L304.8,232.2 L304.1,235.1 L302.1,235.4 L301.6,256.8 L293.4,257.7ZM345.5,13.5 L342.6,16.4 L343.6,17.6 L342.8,22.1 L343.9,26.9 L342.8,30.6 L337.4,35.8 L337.3,37.8 L339.0,42.3 L341.8,44.0 L343.5,48.1 L348.8,51.8 L352.3,66.5 L350.8,67.4 L354.4,74.9 L355.3,86.0 L354.0,89.6 L355.0,95.2 L352.1,97.6 L351.6,99.1 L355.9,105.6 L357.8,111.5 L367.1,113.7 L370.5,120.0 L337.2,141.1 L324.9,152.3 L305.7,156.0 L304.6,154.9 L305.7,152.8 L304.8,149.3 L294.5,145.5 L293.4,143.7 L290.1,141.6 L290.0,139.3 L247.8,109.8 L216.8,90.0 L216.9,78.8 L219.9,76.5 L228.3,71.4 L232.1,71.8 L233.2,69.8 L240.9,68.7 L244.5,64.6 L254.2,60.7 L254.5,59.9 L252.9,58.8 L253.4,54.9 L259.0,53.7 L260.1,51.8 L272.3,51.6 L272.2,49.7 L273.5,48.7 L270.7,46.2 L269.0,41.9 L268.1,30.5 L264.9,27.7 L269.0,27.0 L278.3,21.6 L281.1,21.8 L283.8,19.2 L290.8,16.4 L300.8,15.7 L303.6,14.3 L309.6,13.4 L316.9,13.4 L320.9,15.3 L329.7,11.9 L333.0,13.2 L335.3,12.8 L335.1,11.8 L340.3,13.7 L345.5,13.5Z" fill="#ece6d8" stroke="#9aa5ad" stroke-width="0.7" stroke-linejoin="round"/><path d="M159.1,151.2 L158.8,150.4 L159.8,149.2 L159.6,150.4 L159.1,151.2ZM191.4,190.0 L183.2,183.1 L181.6,179.5 L178.2,178.8 L176.6,176.7 L173.3,174.8 L169.9,174.6 L164.1,176.1 L160.6,175.8 L158.4,181.3 L158.9,175.2 L161.8,167.7 L162.0,162.3 L160.8,156.0 L158.5,153.2 L160.1,152.0 L159.0,152.3 L160.8,146.3 L159.2,142.9 L157.7,143.0 L155.5,139.2 L154.6,141.7 L155.2,137.5 L184.6,137.5 L183.5,125.6 L187.5,122.0 L192.0,120.4 L192.0,100.3 L216.8,100.3 L216.8,90.0 L245.6,108.3 L232.4,108.3 L239.6,175.5 L241.6,177.7 L240.4,184.0 L213.1,184.0 L212.0,183.8 L211.9,182.6 L211.1,184.3 L201.8,184.6 L200.0,186.8 L195.8,182.9 L193.9,184.6 L192.6,188.9 L191.4,190.0Z" fill="#e53935" stroke="#8e1b1b" stroke-width="1" stroke-linejoin="round"/></svg>